<svg data-v-0dd9719b="" version="1.0" xmlns="http://www.w3.org/2000/svg" xmlns:xlink="http://www.w3.org/1999/xlink" width="100%" height="100%" viewBox="0 0 340.000000 250.000000" preserveAspectRatio="xMidYMid meet" color-interpolation-filters="sRGB" style="margin: auto;"> <rect data-v-0dd9719b="" x="0" y="0" width="100%" height="100%" fill="#fff" fill-opacity="1" class="background"></rect> <rect data-v-0dd9719b="" x="0" y="0" width="100%" height="100%" fill="url(#watermark)" fill-opacity="1" class="watermarklayer"></rect> <g data-v-0dd9719b="" fill="#333" class="icon-text-wrapper icon-svg-group iconsvg" transform="translate(47.86500549316406,94.80098724365234)"><g class="iconsvg-imagesvg" transform="translate(0,0)"><g><rect fill="#333" fill-opacity="0" stroke-width="2" x="0" y="0" width="60" height="60.3980229713814" class="image-rect"></rect> <svg x="0" y="0" width="60" height="60.3980229713814" filtersec="colorsb5198524190" class="image-svg-svg primary" style="overflow: visible;"><svg xmlns="http://www.w3.org/2000/svg" viewBox="-0.010436221957206726 -0.030510064214468002 99.39765167236328 100.05687713623047"><path d="M61.52 2.85a9.79 9.79 0 0 1 13.84 13.84l-11 11-13.8-13.88zM48.84 43.18l-6 6-13.78-13.86L35 29.38zM27.33 64.69L16.69 75.33A9.78 9.78 0 0 1 2.85 61.52l10.68-10.67zM82.71 24.65a9.77 9.77 0 0 1 13.81 13.83L85.88 49.13 72 35.32zm-12.4 40l-5.94 5.94-13.81-13.8 5.95-5.94zM48.84 86.16l-11 11A9.77 9.77 0 0 1 24 83.32l11-11z" fill="#333"></path><path d="M24 16.69A9.79 9.79 0 0 1 37.88 2.85l58.64 58.67a9.77 9.77 0 0 1-13.81 13.81z" fill="#119ad0"></path><path d="M2.85 38.48a9.78 9.78 0 0 1 13.84-13.83l58.67 58.67a9.77 9.77 0 0 1-13.84 13.8z" fill="#d5860f"></path></svg></svg> <!----></g></g> <g transform="translate(67,1.2577629089355469)"><g data-gra="path-name" fill-rule="" class="tp-name iconsvg-namesvg" transform="translate(0,0)"><g transform="scale(1)"><g><path d="M23.95 0.31L34.5 0.31 37.79-3.87Q41.44-1.05 43.68 0.83L43.68 0.83Q43.46 1.58 42.41 1.58L42.41 1.58 1.76 1.58 1.41 0.31 18.15 0.31 18.15-37.62 25.62-36.91Q25.4-35.86 23.95-35.64L23.95-35.64 23.95-20.57 31.33-20.57 34.54-24.7Q38.19-21.97 40.34-20.04L40.34-20.04Q40.12-19.29 39.11-19.29L39.11-19.29 23.95-19.29 23.95 0.31ZM49.22-37.66L49.22-37.66 49.61-37.92Q55.59-37 57.04-33.97L57.04-33.97Q57.96-32.12 56.71-30.76 55.46-29.4 53.57-30.28L53.57-30.28Q53.26-30.45 52.91-30.67L52.91-30.67Q52.25-34.01 49.22-37.66ZM46.19-27.29L46.19-27.29 46.58-27.55Q52.29-26.72 53.57-23.82L53.57-23.82Q54.4-22.06 53.17-20.74L53.17-20.74Q51.94-19.42 50.14-20.3L50.14-20.3Q49.79-20.48 49.48-20.74L49.48-20.74Q49.26-22.41 48.32-24.21 47.37-26.02 46.19-27.29ZM58.49-30.54L58.49-30.54 59.28-30.37Q55.15-16.35 54.23-12.13L54.23-12.13Q53.66-9.4 53.7-7.91L53.7-7.91Q53.7-7.03 54.58-4.55 55.46-2.07 55.37 0.22L55.37 0.22Q55.33 1.89 54.34 2.92 53.35 3.96 51.77 3.96L51.77 3.96Q49.92 3.96 49.48 1.63L49.48 1.63Q50.1-1.98 49.99-4.77 49.88-7.56 49.04-8.09L49.04-8.09Q48.25-8.7 46.76-8.83L46.76-8.83 46.76-9.67 48.74-9.67Q49.09-9.67 49.26-9.71 49.44-9.76 49.64-9.95 49.83-10.15 50.05-10.63L50.05-10.63Q50.98-12.52 58.49-30.54ZM68.95-23.25L68.95-23.25 69.39-23.55Q74.36-22.41 75.28-19.73L75.28-19.73Q75.89-18.06 74.66-17.01L74.66-17.01Q73.39-15.91 71.81-17.01L71.81-17.01Q71.67-17.09 71.54-17.18L71.54-17.18Q71.24-20.04 68.95-23.25ZM67.9-13.32L67.9-13.32 68.25-13.58Q73.78-12.79 75.1-10.02L75.1-10.02Q75.85-8.35 74.75-7.21L74.75-7.21Q73.56-5.93 71.81-6.86L71.81-6.86Q71.63-6.94 71.46-7.08L71.46-7.08Q70.8-10.06 67.9-13.32ZM64.38-5.58L64.38-5.58 77.78-5.58Q78.35-8.88 78.66-14.28L78.66-14.28 65.74-14.28Q65.21-10.85 64.38-5.58ZM79.01-24.04L79.01-24.04 67.06-24.04Q66.93-23.03 65.92-15.56L65.92-15.56 78.75-15.56Q78.97-22.24 79.01-24.04ZM82.66-5.63L82.66-5.63 84.95-9.18Q87.67-6.68 89.21-5.05L89.21-5.05Q88.99-4.31 88.02-4.31L88.02-4.31 82.49-4.31Q81.74 0.18 80.2 1.71L80.2 1.71Q78.09 3.82 74.27 3.82L74.27 3.82Q74.27 1.36 73.39 0.48L73.39 0.48Q72.38-0.7 69.26-1.27L69.26-1.27 69.26-1.89Q73.56-1.58 74.93-1.58L74.93-1.58Q76.2-1.58 76.68-2.18 77.17-2.77 77.52-4.31L77.52-4.31 64.2-4.31Q63.98-3.08 63.63-0.97L63.63-0.97Q61.88 0 58.71-0.7L58.71-0.7Q60.12-7.95 61.08-14.28L61.08-14.28 57.39-14.28 57-15.56 61.26-15.56Q62.23-22.72 62.45-24.48L62.45-24.48Q60.38-22.41 57.92-20.7L57.92-20.7 57.39-21.09Q62.31-27.86 64.6-38.23L64.6-38.23 71.37-35.99Q71.06-35.02 69.57-35.16L69.57-35.16Q68.73-33.27 67.5-31.16L67.5-31.16 80.9-31.16 83.63-34.8Q86.62-32.3 88.37-30.59L88.37-30.59Q88.24-29.88 87.14-29.88L87.14-29.88 66.75-29.88Q66.23-29.05 64.56-26.85L64.56-26.85 68.03-25.36 78.57-25.36 81.12-27.99 85.65-24.08Q85.08-23.42 83.76-23.25L83.76-23.25Q83.72-18.98 83.54-15.56L83.54-15.56 85.61-18.81Q88.02-16.57 89.38-14.99L89.38-14.99Q89.25-14.28 88.2-14.28L88.2-14.28 83.41-14.28Q83.14-8.66 82.66-5.63ZM112.68-33.53L112.68-33.53 119.27-31.68Q118.96-30.72 117.55-30.72L117.55-30.72Q114.35-22.19 108.28-17.62L108.28-17.62Q110.48-15.6 109.82-13.58L109.82-13.58Q109.38-12.13 107.97-12L107.97-12Q106.88-11.91 105.82-12.79L105.82-12.79Q105.51-15.69 103.18-19.34L103.18-19.34 103.18 2.5Q103.18 2.9 101.82 3.47 100.46 4.04 99.1 4.04L99.1 4.04 98.04 4.04 98.04-14.46Q95.27-10.02 91.58-6.64L91.58-6.64 91.05-7.12Q95.49-14.11 97.51-25.84L97.51-25.84 91.8-25.84 91.45-27.11 98.04-27.11 98.04-38.36 104.85-37.71Q104.72-36.61 103.18-36.39L103.18-36.39 103.18-27.11 104.02-27.11 106.3-30.59Q108.85-28.13 110.26-26.54L110.26-26.54Q110.13-25.84 109.07-25.84L109.07-25.84 103.18-25.84 103.18-20.26Q105.78-19.47 107.53-18.24L107.53-18.24Q111.4-24.61 112.68-33.53ZM122.43-11.69L122.43-11.69 122.96-11.95Q130.43-8.35 132.63-3.25L132.63-3.25Q134.03 0.04 132.76 2.2L132.76 2.2Q131.7 4 129.68 3.34L129.68 3.34Q128.94 3.12 128.14 2.46L128.14 2.46Q127.75-0.26 126.65-3.3L126.65-3.3Q120.15-0.88 110.39 1.98L110.39 1.98Q109.91 2.9 109.12 3.03L109.12 3.03 106.04-3.08Q108.54-3.16 112.85-3.47L112.85-3.47Q115.09-12.7 116.19-22.46L116.19-22.46 123.66-21.05Q123.44-20.04 121.95-19.91L121.95-19.91Q118.87-11.12 114.35-3.6L114.35-3.6Q116.89-3.78 126.12-4.53L126.12-4.53Q124.54-8.22 122.43-11.69ZM122.12-36.04L123.71-38.76 128.23-35.73Q127.44-34.72 124.23-34.5L124.23-34.5Q125.42-30.76 128.12-27.71 130.83-24.65 134.34-22.9L134.34-22.9 134.25-22.32Q132.58-21.58 131.24-20.1 129.9-18.63 129.46-16.96L129.46-16.96Q124.45-22.68 123.22-34.76L123.22-34.76 115.71-34.76 115.27-36.04 122.12-36.04ZM147.57-31.55L147.57-31.55 145.99-31.55Q142.29-25.05 136.98-21.05L136.98-21.05 136.45-21.45Q138.3-24.61 139.99-29.22 141.68-33.84 142.6-38.5L142.6-38.5 149.77-36.52Q149.46-35.6 147.96-35.6L147.96-35.6Q147.74-35.02 147.28-34.1 146.82-33.18 146.69-32.87L146.69-32.87 152.01-32.87 154.42-36.08Q157.15-33.84 158.77-32.26L158.77-32.26Q158.6-31.55 157.59-31.55L157.59-31.55 150.38-31.55Q153.41-30.19 153.28-28.08L153.28-28.08Q153.15-26.63 151.74-26.06L151.74-26.06Q150.16-25.4 148.71-26.76L148.71-26.76Q148.89-29 147.57-31.55ZM144.27-26.72L144.27-26.72 144.62-27.03Q150.12-26.41 151.48-23.69L151.48-23.69Q152.31-22.02 151.17-20.74L151.17-20.74Q149.99-19.42 148.18-20.26L148.18-20.26Q147.92-20.39 147.7-20.52L147.7-20.52Q147.44-21.58 147.39-21.71L147.39-21.71Q147.26-20.74 145.77-20.52L145.77-20.52 145.77 2.86Q145.77 3.03 145.17 3.3 144.58 3.56 143.61 3.78 142.65 4 141.77 4L141.77 4 140.8 4 140.8-22.41 147.35-21.8Q146.56-24.17 144.27-26.72ZM154.07-10.85L154.07-5.84 160.49-5.84 160.49-10.85 154.07-10.85ZM160.49-12.08L160.49-16.83 154.07-16.83 154.07-12.08 160.49-12.08ZM165.01-16.39L165.01-16.39 165.01-3.96Q165.01-3.6 163.7-2.97 162.38-2.33 161.24-2.33L161.24-2.33 160.49-2.33 160.49-4.57 154.07-4.57 154.07-2.55Q154.07-2.37 153.65-2.09 153.24-1.8 152.34-1.54 151.44-1.27 150.42-1.27L150.42-1.27 149.63-1.27 149.63-19.95 154.25-18.15 160.05-18.15 162.16-20.3 166.42-17.09Q165.98-16.57 165.01-16.39ZM164.58-33L171.12-33 173.85-36.43Q176.88-34.06 178.68-32.39L178.68-32.39Q178.51-31.68 177.45-31.68L177.45-31.68 168-31.68Q169.72-30.98 170.57-29.99 171.43-29 171.34-28.17 171.25-27.33 170.77-26.59L170.77-26.59 175.61-22.85Q174.99-22.24 173.76-21.97L173.76-21.97 173.76-1.41Q173.76-0.04 173.54 0.79 173.32 1.63 172.66 2.4 172 3.16 170.68 3.58 169.37 4 167.3 4.17L167.3 4.17Q167.17 1.8 166.55 0.97L166.55 0.97Q165.41-0.26 163.17-0.57L163.17-0.57 163.17-1.23Q166.82-0.97 167.65-0.97L167.65-0.97Q168.57-0.97 168.57-1.8L168.57-1.8 168.57-22.85 153.33-22.85 152.93-24.13 168.13-24.13 169.58-25.8Q167.92-25.22 166.55-26.59L166.55-26.59Q166.82-29.18 165.28-31.68L165.28-31.68 163.65-31.68Q160.71-27.42 156.53-24.79L156.53-24.79 156.01-25.09Q159.3-30.98 160.62-38.5L160.62-38.5 167.61-36.21Q167.26-35.33 165.85-35.33L165.85-35.33Q165.32-34.23 164.58-33L164.58-33Z" transform="translate(-1.409999966621399, 38.7599983215332)"></path></g> <!----> <!----> <!----> <!----> <!----> <!----> <!----></g></g> <g data-gra="path-slogan" fill-rule="" class="tp-slogan iconsvg-slogansvg" fill="#333" transform="translate(25.88916778564453,48.93000030517578)"><!----> <!----> <g transform="scale(1, 1)"><g transform="scale(1)"><path d="M7.17-6.09L7.17-6.09L6.09-6.09Q6-7.73 3.94-7.83L3.94-7.83Q2.02-7.78 2.02-6.33L2.02-6.33Q2.02-5.39 3.05-5.25L3.05-5.25L5.48-4.69Q7.41-4.22 7.41-2.34L7.41-2.34Q7.36 0.05 4.03 0.14L4.03 0.14Q2.20 0.14 1.45-0.61L1.45-0.61Q0.52-1.31 0.56-2.77L0.56-2.77L1.69-2.77Q1.73-0.80 4.03-0.75L4.03-0.75Q6.28-0.80 6.33-2.20L6.33-2.20Q6.52-3.38 4.45-3.75L4.45-3.75L2.67-4.13Q0.84-4.64 0.84-6.19L0.84-6.19Q0.98-8.72 3.84-8.81L3.84-8.81Q7.08-8.81 7.17-6.09ZM10.03-5.06L14.53-5.06L14.53-8.58L15.70-8.58L15.70 0L14.53 0L14.53-3.98L10.03-3.98L10.03 0L8.86 0L8.86-8.58L10.03-8.58L10.03-5.06ZM23.16 0L22.31-2.48L18.84-2.48L17.95 0L16.78 0L20.02-8.58L21.33-8.58L24.42 0L23.16 0ZM20.58-7.31L19.22-3.52L21.89-3.52L20.63-7.31L20.58-7.31ZM26.86-8.58L31.17-1.64L31.17-8.58L32.30-8.58L32.30 0L30.98 0L26.63-6.94L26.58-6.94L26.58 0L25.45 0L25.45-8.58L26.86-8.58ZM40.50-3.61L37.88-3.61L37.88-4.59L41.63-4.59L41.63 0L40.88 0L40.59-1.08Q39.61 0.09 37.78 0.14L37.78 0.14Q36.05 0.14 35.11-0.75L35.11-0.75Q33.70-2.06 33.75-4.36L33.75-4.36Q34.08-8.63 37.83-8.81L37.83-8.81Q41.02-8.63 41.48-6L41.48-6L40.36-6Q39.89-7.78 37.78-7.83L37.78-7.83Q35.11-7.64 34.97-4.31L34.97-4.31Q34.97-0.75 37.83-0.75L37.83-0.75Q38.86-0.75 39.61-1.31L39.61-1.31Q40.55-2.06 40.50-3.61L40.50-3.61ZM44.58-5.06L49.08-5.06L49.08-8.58L50.25-8.58L50.25 0L49.08 0L49.08-3.98L44.58-3.98L44.58 0L43.41 0L43.41-8.58L44.58-8.58L44.58-5.06ZM57.70 0L56.86-2.48L53.39-2.48L52.50 0L51.33 0L54.56-8.58L55.88-8.58L58.97 0L57.70 0ZM55.13-7.31L53.77-3.52L56.44-3.52L55.17-7.31L55.13-7.31ZM60.19-8.58L61.36-8.58L61.36 0L60.19 0L60.19-8.58ZM72.94-6.09L72.94-6.09L71.86-6.09Q71.77-7.73 69.70-7.83L69.70-7.83Q67.78-7.78 67.78-6.33L67.78-6.33Q67.78-5.39 68.81-5.25L68.81-5.25L71.25-4.69Q73.17-4.22 73.17-2.34L73.17-2.34Q73.13 0.05 69.80 0.14L69.80 0.14Q67.97 0.14 67.22-0.61L67.22-0.61Q66.28-1.31 66.33-2.77L66.33-2.77L67.45-2.77Q67.50-0.80 69.80-0.75L69.80-0.75Q72.05-0.80 72.09-2.20L72.09-2.20Q72.28-3.38 70.22-3.75L70.22-3.75L68.44-4.13Q66.61-4.64 66.61-6.19L66.61-6.19Q66.75-8.72 69.61-8.81L69.61-8.81Q72.84-8.81 72.94-6.09ZM81.42-4.27L81.42-4.27Q81.23-7.64 78.42-7.83L78.42-7.83Q75.56-7.69 75.42-4.27L75.42-4.27Q75.56-0.94 78.42-0.80L78.42-0.80Q81.23-0.98 81.42-4.27ZM82.59-4.27L82.59-4.27Q82.31 0 78.42 0.14L78.42 0.14Q74.48 0 74.20-4.27L74.20-4.27Q74.44-8.72 78.42-8.81L78.42-8.81Q82.31-8.67 82.59-4.27ZM85.36-8.58L89.67-1.64L89.67-8.58L90.80-8.58L90.80 0L89.48 0L85.13-6.94L85.08-6.94L85.08 0L83.95 0L83.95-8.58L85.36-8.58ZM99-3.61L96.38-3.61L96.38-4.59L100.13-4.59L100.13 0L99.38 0L99.09-1.08Q98.11 0.09 96.28 0.14L96.28 0.14Q94.55 0.14 93.61-0.75L93.61-0.75Q92.20-2.06 92.25-4.36L92.25-4.36Q92.58-8.63 96.33-8.81L96.33-8.81Q99.52-8.63 99.98-6L99.98-6L98.86-6Q98.39-7.78 96.28-7.83L96.28-7.83Q93.61-7.64 93.47-4.31L93.47-4.31Q93.47-0.75 96.33-0.75L96.33-0.75Q97.36-0.75 98.11-1.31L98.11-1.31Q99.05-2.06 99-3.61L99-3.61ZM101.20-1.92L101.20-2.77L102.28-2.77L102.28-2.16Q102.28-0.75 103.59-0.75L103.59-0.75Q104.95-0.75 104.95-2.25L104.95-2.25L104.95-8.58L106.13-8.58L106.13-2.30Q106.08 0.09 103.64 0.14L103.64 0.14Q101.34 0.09 101.20-1.92L101.20-1.92ZM108.09-8.58L109.27-8.58L109.27 0L108.09 0L108.09-8.58ZM116.91 0L116.06-2.48L112.59-2.48L111.70 0L110.53 0L113.77-8.58L115.08-8.58L118.17 0L116.91 0ZM114.33-7.31L112.97-3.52L115.64-3.52L114.38-7.31L114.33-7.31ZM120.61-8.58L124.92-1.64L124.92-8.58L126.05-8.58L126.05 0L124.73 0L120.38-6.94L120.33-6.94L120.33 0L119.20 0L119.20-8.58L120.61-8.58Z" transform="translate(-0.5602678571428572, 8.8125)"></path></g></g></g></g></g><defs v-gra="od"></defs></svg>